<svg width="15" height="11" viewBox="0 0 15 11" fill="none" xmlns="http://www.w3.org/2000/svg">
<path fill-rule="evenodd" clip-rule="evenodd" d="M11.0636 5C11.0636 7.04986 9.01082 9 6.0899 9C3.16897 9 1.11621 7.04986 1.11621 5C1.11621 2.95014 3.16897 1 6.0899 1C9.01082 1 11.0636 2.95014 11.0636 5ZM10.3139 8.53553C9.2329 9.44036 7.73948 10 6.0899 10C2.79072 10 0.116211 7.76142 0.116211 5C0.116211 2.23858 2.79072 0 6.0899 0C9.38907 0 12.0636 2.23858 12.0636 5C12.0636 6.05278 11.6748 7.02956 11.011 7.83527L14.0252 10.3582L13.2583 11L10.3139 8.53553Z" fill="black"/>
</svg>
